<?xml version="1.0" encoding="UTF-8"?>
<svg id="Layer_1" data-name="Layer 1" xmlns="http://www.w3.org/2000/svg" viewBox="0 0 458.67 458.67">
  <path d="M229.38,458.66c-24.16,.2-48.2-3.61-71.11-11.29l-17.78-6.4,41.69-50.93c2.2-2.85,5.46-4.7,9.04-5.1,3.58-.41,7.18,.65,9.96,2.93,2.79,2.29,4.54,5.6,4.84,9.19,.3,3.59-.86,7.15-3.22,9.87l-17.07,20.62c14.36,2.97,28.98,4.46,43.64,4.45,47.8-.02,94.05-16.95,130.57-47.79s60.95-73.61,68.96-120.73c8.02-47.12-.89-95.56-25.16-136.75-24.27-41.18-62.32-72.46-107.42-88.28-45.11-15.83-94.36-15.19-139.03,1.81-44.68,17-81.9,49.25-105.09,91.05-23.19,41.81-30.84,90.46-21.59,137.36s34.78,89.02,72.09,118.9c5.74,4.61,6.66,13.01,2.04,18.75-4.61,5.75-13.01,6.66-18.75,2.05C43.73,374.51,14.81,326.82,4.33,273.69c-10.47-53.12-1.82-108.23,24.44-155.58C55.03,70.76,97.19,34.23,147.79,14.98c50.61-19.25,106.39-19.98,157.47-2.05,51.09,17.93,94.19,53.35,121.67,100,27.48,46.65,37.57,101.52,28.48,154.89-9.09,53.38-36.77,101.81-78.14,136.74-41.37,34.93-93.76,54.09-147.9,54.1h0Zm.89-95.39h0c-2.83,.07-5.6-.77-7.91-2.4-5.76-4.59-6.75-12.95-2.22-18.75l82.22-105.07L173.38,78.92c-4.64-5.72-3.76-14.11,1.96-18.75s14.12-3.76,18.75,1.96l131.2,161.33c3.01,3.79,4.65,8.49,4.65,13.33s-1.64,9.54-4.65,13.34l-84.54,108.09c-2.56,3.18-6.41,5.04-10.49,5.07h0Z"/>
</svg>